PathFileType	4	(X/Y/Z)	C:\Git\research_data\Projects\torsion_deformities_healthy_kinematics\simulations\P01\pre\dynamic04_l\marker_experimental.trc
DataRate	CameraRate	NumFrames	NumMarkers	Units	OrigDataRate	OrigDataStartFrame	OrigNumFrames
200	200	9	34	mm	200	521	694
Frame#	Time	C7			T10			CLAV			STRN			RBAK			LASI			RASI			SACR			LT1			LT2			LT3			LS1			LS2			LS3			LHEE			LTOE			RT1			RT2			RT3			RS1			RS2			RS3			RHEE			RTOE			LKNE			LANK			RKNE			RANK			LAJC			LKJC			RAJC			RKJC			RHJC			LHJC		
		X1	Y1	Z1	X2	Y2	Z2	X3	Y3	Z3	X4	Y4	Z4	X5	Y5	Z5	X6	Y6	Z6	X7	Y7	Z7	X8	Y8	Z8	X9	Y9	Z9	X10	Y10	Z10	X11	Y11	Z11	X12	Y12	Z12	X13	Y13	Z13	X14	Y14	Z14	X15	Y15	Z15	X16	Y16	Z16	X17	Y17	Z17	X18	Y18	Z18	X19	Y19	Z19	X20	Y20	Z20	X21	Y21	Z21	X22	Y22	Z22	X23	Y23	Z23	X24	Y24	Z24	X25	Y25	Z25	X26	Y26	Z26	X27	Y27	Z27	X28	Y28	Z28	X29	Y29	Z29	X30	Y30	Z30	X31	Y31	Z31	X32	Y32	Z32	X33	Y33	Z33	X34	Y34	Z34	

521	2.600000	1281.233032	1034.441772	-361.697174	1266.557739	855.407471	-364.810211	1400.326660	1001.510803	-348.272888	1457.510132	878.670227	-336.387848	1251.446045	976.268250	-272.496124	1413.023315	705.237000	-454.825470	1395.001587	693.863464	-241.608749	1253.753906	746.657593	-361.014984	1387.278076	508.334747	-490.912292	1323.881104	433.052032	-489.110352	1462.413696	417.422180	-450.581787	1367.681519	258.119446	-468.925964	1274.671509	183.119156	-499.243622	1406.363281	172.489075	-441.745117	1284.159424	43.574780	-424.321045	1423.887451	43.196121	-389.894714	1371.876465	530.251709	-202.017258	1335.455688	441.931885	-216.525223	1474.588745	467.922394	-195.386032	1387.309448	303.221863	-204.905548	1264.109863	297.714661	-193.582809	1375.136597	208.244629	-214.564575	1196.336792	156.769836	-261.159180	1306.596069	64.720863	-268.487396	1365.840942	357.285919	-455.612885	1334.503540	39.039440	-440.218201	1428.263794	368.337524	-214.799362	1231.947144	124.236603	-229.846451	1330.769775	39.338188	-406.529510	1369.475342	353.302795	-404.411407	1237.314209	128.237961	-266.109009	1439.505493	365.266968	-267.350616	1329.915405	637.954966	-279.364899	1343.037664	646.236441	-434.615553	
522	2.605000	1287.816650	1035.021362	-362.443573	1273.055176	856.090332	-365.145142	1406.701660	1002.328796	-348.353058	1464.083984	879.509460	-336.409424	1257.632812	977.246765	-273.629150	1419.462769	705.547852	-454.487305	1402.174316	695.561829	-242.040283	1260.337524	747.631409	-360.775208	1390.408936	507.986176	-490.984497	1325.815552	433.742706	-488.482727	1464.508911	416.092957	-451.297577	1368.230225	258.216461	-468.778320	1274.639282	183.674255	-498.491943	1406.766968	172.385910	-442.034668	1284.181030	43.769203	-424.116394	1424.056763	43.114605	-389.775391	1380.666016	531.774414	-201.754959	1344.970825	443.040833	-215.700821	1484.081909	470.507629	-196.175522	1398.987549	303.347961	-205.280670	1276.096436	294.445221	-193.009521	1389.247070	208.147125	-215.613800	1211.491211	151.919861	-261.362762	1324.572021	63.531712	-270.226166	1366.928711	357.336456	-455.281738	1334.313843	39.237049	-440.166077	1438.536377	370.413055	-214.894241	1248.270386	120.461876	-230.425156	1330.846191	39.496372	-406.448669	1370.997437	353.355133	-404.112823	1253.227173	124.893860	-266.696045	1449.214355	367.359070	-267.563904	1336.996708	639.679600	-279.073816	1349.589990	646.953634	-433.824803	
523	2.610000	1294.404053	1035.507690	-363.189484	1279.560791	856.676514	-365.462799	1413.082764	1003.034607	-348.450714	1470.673584	880.231628	-336.472595	1263.835449	978.121521	-274.770233	1425.847778	705.719421	-454.178284	1409.398926	697.081421	-242.514709	1266.909302	748.481995	-360.447144	1393.583130	507.636078	-490.992065	1327.858521	434.424225	-487.854156	1466.635010	414.806824	-451.943512	1368.862183	258.309692	-468.623444	1274.683350	184.240616	-497.764893	1407.223145	172.272324	-442.301239	1284.220459	43.990746	-423.896637	1424.236206	43.037495	-389.679993	1389.468750	533.177307	-201.465866	1354.447266	444.083740	-214.869186	1493.499146	472.878448	-196.946335	1410.599976	303.323364	-205.667297	1288.153564	290.883301	-192.357803	1403.377808	207.960800	-216.740219	1226.840820	146.874176	-261.600098	1342.707275	62.360035	-271.867981	1368.116333	357.389343	-454.954468	1334.143799	39.442398	-440.115448	1448.676025	372.333832	-214.993179	1264.817017	116.510643	-231.035706	1330.929688	39.661587	-406.372620	1372.589478	353.380432	-403.821472	1269.308594	121.387398	-267.310089	1458.792114	369.288361	-267.774139	1344.100577	641.252883	-278.799530	1356.087072	647.547508	-433.041569	
524	2.615000	1300.995728	1035.898193	-363.934479	1286.075073	857.163391	-365.760284	1419.473877	1003.622742	-348.565918	1477.277832	880.828613	-336.577026	1270.054321	978.888733	-275.917542	1432.159912	705.748657	-453.917053	1416.664795	698.400391	-243.015808	1273.467896	749.204163	-360.024780	1396.815796	507.283264	-490.936615	1330.020508	435.090973	-487.234375	1468.808716	413.549469	-452.522278	1369.586670	258.395233	-468.465057	1274.815918	184.819443	-497.073334	1407.735718	172.143082	-442.544189	1284.276123	44.238331	-423.667206	1424.419556	42.964622	-389.609924	1398.271851	534.447571	-201.156906	1363.878784	445.049957	-214.051086	1502.828979	475.018646	-197.694778	1422.146240	303.166229	-206.070862	1300.292725	287.065094	-191.652206	1417.525513	207.710693	-217.930756	1242.398926	141.661713	-261.872894	1360.993896	61.220402	-273.389740	1369.414307	357.438568	-454.645111	1333.995728	39.653465	-440.069824	1458.678101	374.086945	-215.108932	1281.587158	112.422752	-231.669540	1331.019653	39.832344	-406.304932	1374.259033	353.370514	-403.550659	1285.562378	117.745964	-267.941437	1468.242676	371.048920	-267.993073	1351.212175	642.648779	-278.533362	1362.508099	648.005658	-432.280155	
525	2.620000	1307.592651	1036.191040	-364.677826	1292.598145	857.549011	-366.034790	1425.878296	1004.088623	-348.698090	1483.895386	881.293762	-336.721680	1276.289551	979.545227	-277.068726	1438.382324	705.633484	-453.719818	1423.961060	699.500854	-243.526779	1280.012817	749.794312	-359.503845	1400.120728	506.925323	-490.819946	1332.311157	435.736816	-486.630951	1471.045044	412.306976	-453.032837	1370.411011	258.469360	-468.304260	1275.048706	185.410385	-496.426727	1408.307983	171.993484	-442.760193	1284.346558	44.510597	-423.431976	1424.600952	42.895653	-389.564209	1407.061157	535.573853	-200.835953	1373.256836	445.929474	-213.265564	1512.060913	476.915710	-198.420517	1433.624146	302.896606	-206.495895	1312.519897	283.030823	-190.920456	1431.684937	207.423141	-219.167984	1258.178589	136.312057	-262.177612	1379.422485	60.126049	-274.775970	1370.832397	357.478424	-454.362305	1333.873901	39.867794	-440.031250	1468.538086	375.661987	-215.254425	1298.577759	108.240417	-232.315521	1331.116943	40.006611	-406.247589	1376.012817	353.319519	-403.308105	1301.992065	113.998299	-268.578156	1477.567505	372.636566	-268.233246	1358.317237	643.844810	-278.265585	1368.834199	648.317139	-431.552582	
526	2.625000	1314.195312	1036.385132	-365.418304	1299.130249	857.832336	-366.283539	1432.299072	1004.429138	-348.846039	1490.525146	881.622131	-336.904663	1282.541260	980.088745	-278.221100	1444.500366	705.372437	-453.599579	1431.277344	700.369873	-244.031189	1286.543823	750.250244	-358.882233	1403.509888	506.559143	-490.644104	1334.738037	436.355499	-486.049194	1473.357788	411.066833	-453.471252	1371.340454	258.528778	-468.139923	1275.392212	186.012100	-495.832611	1408.941772	171.819580	-442.943726	1284.429443	44.806076	-423.192963	1424.774902	42.830292	-389.539795	1415.821045	536.546204	-200.511505	1382.571045	446.712708	-212.529327	1521.186035	478.560944	-199.126480	1445.030151	302.535400	-206.946045	1324.835693	278.823029	-190.192215	1445.848877	207.124817	-220.430969	1274.191650	130.855682	-262.505737	1397.982544	59.090427	-276.018829	1372.379395	357.503906	-454.109589	1333.782715	40.083073	-439.999939	1478.252319	377.051605	-215.442215	1315.782349	104.007133	-232.960190	1331.222290	40.182518	-406.200653	1377.856689	353.224335	-403.096375	1318.600098	110.174179	-269.206787	1486.767456	374.049225	-268.507446	1365.402844	644.823120	-277.985751	1375.049158	648.472535	-430.867780	
527	2.630000	1320.804199	1036.480225	-366.154266	1305.671631	858.013000	-366.503967	1438.739136	1004.642212	-349.008026	1497.165771	881.810303	-337.123535	1288.809082	980.517761	-279.371613	1450.502319	704.965454	-453.565765	1438.603760	700.999146	-244.513657	1293.061523	750.571350	-358.159790	1406.993042	506.181213	-490.411469	1337.307617	436.940826	-485.491882	1475.758545	409.818573	-453.831665	1372.377930	258.570770	-467.969238	1275.854980	186.622955	-495.295990	1409.637695	171.618256	-443.088104	1284.522705	45.123375	-422.950439	1424.937622	42.768364	-389.532227	1424.534790	537.356140	-200.192444	1391.809448	447.390533	-211.856430	1530.196289	479.949463	-199.818466	1456.358643	302.103729	-207.423996	1337.234985	274.484955	-189.497787	1460.007446	206.841873	-221.696457	1290.449097	125.324142	-262.844360	1416.662598	58.128391	-277.117767	1374.063354	357.510956	-453.885620	1333.726685	40.297253	-439.974274	1487.817383	378.251038	-215.684113	1333.190918	99.766556	-233.588898	1331.337280	40.358479	-406.162384	1379.796509	353.084412	-402.913055	1335.388062	106.304146	-269.813477	1495.841553	375.286346	-268.827911	1372.457596	645.570648	-277.683768	1381.140138	648.464918	-430.231953	
528	2.635000	1327.419922	1036.476562	-366.883850	1312.222656	858.091370	-366.693756	1445.200562	1004.727051	-349.181763	1503.816284	881.856628	-337.375153	1295.092651	980.831360	-280.516876	1456.379639	704.413513	-453.623932	1445.931396	701.385437	-244.960526	1299.566650	750.758362	-357.338562	1410.577515	505.787720	-490.124695	1340.023804	437.487061	-484.959442	1478.257324	408.554382	-454.107849	1373.524658	258.593475	-467.788147	1276.442871	187.241776	-494.818695	1410.395142	171.387390	-443.186371	1284.624146	45.461376	-422.702850	1425.085938	42.709831	-389.536224	1433.186157	537.996948	-199.887573	1400.958130	447.954285	-211.258163	1539.084229	481.079865	-200.504684	1467.602661	301.622131	-207.931519	1349.707764	270.058685	-188.866699	1474.149170	206.599335	-222.940094	1306.959351	119.750267	-263.177216	1435.450439	57.256851	-278.078552	1375.891235	357.496185	-453.685303	1333.708740	40.509190	-439.951050	1497.228394	379.256989	-215.991135	1350.791382	95.561394	-234.186447	1331.462524	40.533855	-406.129333	1381.837280	352.901245	-402.752075	1352.356812	102.419228	-270.384613	1504.785400	376.347504	-269.206421	1379.472037	646.079612	-277.350155	1387.097941	648.289727	-429.648203	
529	2.640000	1334.042603	1036.375000	-367.604736	1318.783569	858.068298	-366.850922	1451.685547	1004.684082	-349.364594	1510.475708	881.761108	-337.655762	1301.391846	981.029663	-281.653320	1462.128174	703.719055	-453.775604	1453.252808	701.530273	-245.360382	1306.061035	750.813660	-356.422638	1414.267944	505.374969	-489.787018	1342.888550	437.988861	-484.450012	1480.861694	407.269379	-454.294708	1374.779785	258.595825	-467.592041	1277.157471	187.868439	-494.398743	1411.212280	171.125885	-443.232544	1284.731689	45.819378	-422.447113	1425.218506	42.654728	-389.546021	1441.758911	538.463440	-199.605423	1410.001831	448.395599	-210.743179	1547.842529	481.953827	-201.195068	1478.753906	301.109863	-208.469604	1362.240234	265.583832	-188.326172	1488.260620	206.420532	-224.137970	1323.728271	114.168259	-263.485657	1454.333496	56.494957	-278.911804	1377.867798	357.457184	-453.500641	1333.729126	40.718803	-439.925873	1506.479126	380.067566	-216.373199	1368.568970	91.432823	-234.738022	1331.597412	40.709064	-406.096710	1383.984009	352.678070	-402.604523	1369.505493	98.551086	-270.907654	1513.592041	377.232697	-269.653687	1386.439188	646.347641	-276.976901	1392.918073	647.945419	-429.116924	
